<svg xmlns="http://www.w3.org/2000/svg" width="256" height="256" viewBox="0 0 100 100"><rect width="100" height="100" rx="20" fill="#7b0707"></rect><path d="M39.42 69.69L37.18 62.19L20.38 62.19Q19.55 64.96 18.61 67.96Q17.68 70.96 17.08 72.91L17.08 72.91Q16.33 73.21 15.46 73.44Q14.60 73.66 13.33 73.66L13.33 73.66Q10.78 73.66 9.35 72.65Q7.93 71.64 7.93 69.76L7.93 69.76Q7.93 68.86 8.19 68Q8.45 67.14 8.83 66.01L8.83 66.01Q9.43 63.91 10.44 60.95Q11.45 57.99 12.61 54.50Q13.78 51.01 15.13 47.30Q16.48 43.59 17.71 40.10Q18.95 36.61 20.11 33.57Q21.28 30.54 22.10 28.36L22.10 28.36Q23.08 27.84 24.99 27.31Q26.90 26.79 28.85 26.79L28.85 26.79Q31.48 26.79 33.65 27.57Q35.83 28.36 36.43 30.09L36.43 30.09Q37.93 34.21 39.73 39.57Q41.52 44.94 43.36 50.64Q45.20 56.34 46.92 61.81Q48.65 67.29 50 71.64L50 71.64Q49.25 72.46 47.94 73.02Q46.63 73.59 44.83 73.59L44.83 73.59Q42.20 73.59 41.11 72.65Q40.02 71.71 39.42 69.69L39.42 69.69ZM29.15 35.34L28.78 35.34Q28.10 37.21 27.31 39.54Q26.53 41.86 25.66 44.38Q24.80 46.89 23.90 49.47Q23.00 52.06 22.18 54.54L22.18 54.54L35.23 54.54L29.15 35.34ZM73.10 57.76L67.25 57.76L67.25 72.84Q66.58 72.99 65.34 73.21Q64.10 73.44 62.67 73.44L62.67 73.44Q59.83 73.44 58.66 72.39Q57.50 71.34 57.50 68.86L57.50 68.86L57.50 31.21Q57.50 29.79 58.25 29.04Q59 28.29 60.35 27.84L60.35 27.84Q61.55 27.46 63.01 27.16Q64.47 26.86 66.05 26.67Q67.63 26.49 69.20 26.41Q70.78 26.34 72.20 26.34L72.20 26.34Q82.10 26.34 87.09 30.57Q92.08 34.81 92.08 42.01L92.08 42.01Q92.08 49.21 87.20 53.49Q82.33 57.76 73.10 57.76L73.10 57.76ZM67.17 49.96L72.50 49.96Q77 49.96 79.59 48.01Q82.17 46.06 82.17 42.01L82.17 42.01Q82.17 38.11 79.74 36.16Q77.30 34.21 72.65 34.21L72.65 34.21Q69.42 34.21 67.17 34.66L67.17 34.66L67.17 49.96Z" fill="#fff"></path></svg>